<svg xmlns="http://www.w3.org/2000/svg" viewBox="0 0 1600 900" role="img" aria-labelledby="t d">
<title id="t">The Way of Water</title><desc id="d">Half-Life 2 Hammer Editor level design case study cover</desc>
<defs><pattern id="grid" width="64" height="64" patternUnits="userSpaceOnUse"><path d="M64 0H0V64" fill="none" stroke="#a8d9dc" stroke-opacity=".18" stroke-width="1"/></pattern><linearGradient id="bg" x1="0" y1="0" x2="1" y2="1"><stop stop-color="#0c262a"/><stop offset="1" stop-color="#101417"/></linearGradient></defs>
<rect width="1600" height="900" fill="url(#bg)"/><rect width="1600" height="900" fill="url(#grid)"/>
<path d="M0 650C260 580 420 810 710 700S1170 510 1600 650V900H0Z" fill="#5bd4db" fill-opacity=".16"/>
<path d="M0 715C300 635 460 850 760 740s520-120 840-40" fill="none" stroke="#77e4e9" stroke-opacity=".65" stroke-width="5"/>
<g fill="none" stroke="#ff6a2a" stroke-width="6"><path d="M1150 180h240v240h-240z"/><path d="M1195 225h150v150h-150z"/><path d="m1150 180 45 45m195-45-45 45m45 195-45-45m-150 0-45 45"/></g>
<text x="110" y="165" fill="#ff6a2a" font-family="Arial, sans-serif" font-size="30" letter-spacing="8">HALF-LIFE 2 / HAMMER</text>
<text x="105" y="380" fill="#f3f0e9" font-family="Arial, sans-serif" font-size="124" font-weight="700">THE WAY</text>
<text x="105" y="515" fill="#f3f0e9" font-family="Arial, sans-serif" font-size="124" font-weight="700">OF WATER</text>
<text x="112" y="600" fill="#a8c0c2" font-family="Arial, sans-serif" font-size="30" letter-spacing="4">HAZARD · TIMING · ESCAPE</text>
</svg>
